<svg width="2544" height="1979" viewBox="0 0 2544 1979" fill="none" xmlns="http://www.w3.org/2000/svg">
<path d="M1679.9 6.87949C1739.96 18.6548 1774.12 43.667 1794.13 76.2145C1814.26 108.947 1820.34 149.704 1823.29 193.564C1824.12 205.831 1824.7 218.353 1825.29 230.987C1826.79 263.265 1828.32 296.276 1834.07 327.637C1842.09 371.438 1858.41 412.564 1894.6 445.08C1946.62 491.817 2009.76 502.436 2069.34 512.457C2075.5 513.493 2081.62 514.522 2087.69 515.584C2152.7 526.969 2211.63 542.067 2248.17 607.125C2283.84 670.642 2272.45 727.08 2252.93 786.708C2249.78 796.312 2246.42 806.006 2243.02 815.826C2225.35 866.808 2206.51 921.162 2210.66 983.833C2214.4 1040.35 2234.88 1090.88 2261.49 1137.77C2280.56 1171.37 2302.88 1203.26 2324.5 1234.15C2332.99 1246.29 2341.38 1258.28 2349.42 1270.15C2378.02 1312.38 2402.24 1353.23 2412.18 1395.31C2422.07 1437.2 2417.83 1480.44 2389.13 1527.62C2339.97 1608.42 2265.45 1621.59 2181.56 1626.7C2170.05 1627.4 2158.37 1627.95 2146.55 1628.5C2072.51 1631.97 1993.41 1635.67 1921.71 1678.95C1858.39 1717.17 1820.38 1767.71 1783.99 1816.09C1779.76 1821.71 1775.56 1827.3 1771.34 1832.83C1730.75 1886.11 1688.66 1934.79 1611.93 1960.49C1517.18 1992.23 1441.63 1969.68 1364.14 1937.68C1351.93 1932.64 1339.66 1927.36 1327.27 1922.02C1261.08 1893.52 1191.12 1863.39 1105.56 1859.42C1032.03 1856 966.801 1878.48 905.752 1899.52C891.622 1904.39 877.715 1909.18 863.981 1913.56C790.727 1936.91 722.077 1948.65 648.164 1899.9C599.548 1867.83 580.847 1824.76 563.401 1779.02C562.196 1775.86 560.996 1772.69 559.793 1769.51C543.614 1726.71 526.755 1682.12 485.745 1644.09C435.157 1597.18 373.598 1587.01 315.233 1577.37C310.183 1576.53 305.157 1575.7 300.164 1574.85C237.212 1564.14 179.406 1550.37 141.609 1488.58C113.808 1443.13 109.65 1402.1 119.892 1362.85C130.183 1323.42 155.064 1285.55 185.849 1246.68C199.694 1229.2 214.677 1211.58 230.006 1193.56C231.703 1191.57 233.404 1189.57 235.108 1187.56C252.192 1167.46 269.58 1146.83 286.093 1125.41C319.113 1082.58 348.751 1036.44 365.643 984.563C394.241 896.735 393.143 813.654 392.106 735.279C391.85 715.935 391.598 696.879 391.797 678.108C392.805 583.174 405.248 495.053 485.863 411.61C565.98 328.682 672.395 341.731 783.838 369.592C803.009 374.385 822.347 379.621 841.697 384.86C878.318 394.777 914.986 404.706 950.666 411.666C1005.28 422.321 1058.2 426.171 1106.25 412.409C1154.38 398.621 1199.29 363.042 1243.19 318.673C1272.16 289.402 1300.91 256.066 1329.97 222.374C1344.94 205.017 1359.99 187.565 1375.19 170.525C1420.03 120.274 1466.33 73.4508 1516.44 42.1383C1566.47 10.8726 1620.15 -4.83778 1679.9 6.87949Z" fill="white" stroke="white" stroke-width="6"/>
<path d="M312.331 966.498C387.238 736.053 268.096 537.486 440.008 359.235C611.92 180.984 896.429 416.638 1096.49 359.235C1205.12 328.066 1299.23 189.409 1403.6 77.2469M2266.7 966.498C2256.35 809.955 2382.6 703.479 2305.9 566.691C2227.19 426.3 2051.5 502.09 1931.92 394.482C1874.39 342.71 1865.1 269.808 1861.09 196.747" stroke="white" stroke-width="6"/>
<path d="M1373.76 1137.07V1205.33H1267.42V1137.07H1373.76Z" fill="#F47155" stroke="#330043" stroke-width="6"/>
<path d="M1088.65 1262.45C1089.83 1254.6 1095.66 1246.67 1106.33 1238.98C1118.29 1230.36 1135.79 1222.48 1157.68 1215.81C1201.44 1202.48 1262.06 1194.19 1329.16 1194.19C1396.25 1194.19 1456.88 1202.48 1500.63 1215.81C1522.52 1222.48 1540.02 1230.36 1551.98 1238.98C1562.65 1246.67 1568.48 1254.6 1569.66 1262.45H1088.65Z" fill="#FFCD34" stroke="#330043" stroke-width="6"/>
<path d="M1081.32 1256.38C1146.46 1245.84 1244.62 1232.27 1318.03 1232.27C1390.87 1232.27 1488.09 1245.64 1553.22 1256.14C1596.38 1263.1 1632.36 1292.38 1645.42 1333.93C1658.81 1376.54 1672.72 1431.41 1672.72 1475.39C1672.72 1519.22 1658.9 1573.89 1645.55 1616.44C1632.44 1658.21 1596.17 1687.57 1552.76 1694.38C1487.62 1704.6 1390.68 1717.55 1318.03 1717.55C1244.81 1717.55 1146.92 1704.39 1081.78 1694.14C1039.18 1687.44 1003.41 1658.99 989.888 1618.22C975.717 1575.49 960.843 1519.96 960.843 1475.39C960.843 1430.68 975.81 1374.94 990.02 1332.15C1003.49 1291.61 1038.98 1263.24 1081.32 1256.38Z" fill="#FF4A97" stroke="#330043" stroke-width="6"/>
<path d="M1331.36 1417.04L1342.86 1429.48C1345.16 1431.98 1347.94 1433.99 1351.03 1435.42L1366.41 1442.51C1376.93 1447.35 1381.08 1460.13 1375.42 1470.24L1367.14 1485.02C1365.48 1487.98 1364.42 1491.24 1364.02 1494.62L1362.03 1511.44C1360.68 1522.94 1349.8 1530.84 1338.45 1528.58L1321.83 1525.27C1318.5 1524.61 1315.07 1524.61 1311.73 1525.27L1295.12 1528.58C1283.76 1530.84 1272.89 1522.94 1271.53 1511.44L1269.54 1494.62C1269.14 1491.24 1268.08 1487.98 1266.42 1485.02L1258.14 1470.24C1252.48 1460.13 1256.63 1447.35 1267.15 1442.51L1282.54 1435.42C1285.62 1433.99 1288.4 1431.98 1290.7 1429.48L1302.2 1417.04C1310.06 1408.53 1323.5 1408.53 1331.36 1417.04Z" fill="#FFCD34" stroke="#330043" stroke-width="6"/>
<path d="M1639.29 955.878H1697.62C1757.89 955.878 1806.96 904.909 1806.96 841.771C1806.96 809.513 1802.93 785.841 1791.76 770.231C1780.77 754.887 1762.39 746.706 1731.89 746.706C1718.33 746.706 1703.18 750.18 1691.31 753.722C1685.4 755.485 1680.35 757.248 1676.78 758.569C1675.03 759.217 1673.64 759.757 1672.68 760.139L1639.29 955.878Z" fill="#F47155" stroke="#330043" stroke-width="6"/>
<path d="M995.224 955.878H936.893C876.619 955.878 827.547 904.909 827.547 841.771C827.547 809.513 831.581 785.841 842.754 770.231C853.738 754.887 872.122 746.706 902.618 746.706C916.186 746.706 931.33 750.18 943.204 753.722C949.115 755.485 954.163 757.248 957.73 758.569C959.478 759.217 960.868 759.757 961.828 760.139L995.224 955.878Z" fill="#F47155" stroke="#330043" stroke-width="6"/>
<path d="M1672.71 829.397C1672.71 1003.03 1513.71 1144.39 1316.78 1144.39C1119.84 1144.39 960.838 1003.03 960.838 829.397V828.998V828.6V828.203V827.807V827.411V827.016V826.621V826.227V825.834V825.442V825.05V824.658V824.268V823.878V823.489V823.1V822.712V822.325V821.938V821.552V821.167V820.782V820.398V820.015V819.632V819.25V818.869V818.488V818.109V817.729V817.351V816.973V816.595V816.219V815.843V815.467V815.093V814.719V814.346V813.973V813.601V813.23V812.859V812.489V812.12V811.751V811.384V811.016V810.65V810.284V809.919V809.554V809.19V808.827V808.465V808.103V807.742V807.382V807.022V806.663V806.304V805.947V805.59V805.233V804.878V804.523V804.169V803.815V803.462V803.11V802.758V802.407V802.057V801.708V801.359V801.011V800.664V800.317V799.971V799.626V799.281V798.937V798.594V798.251V797.909V797.568V797.228V796.888V796.549V796.211V795.873V795.536V795.2V794.864V794.529V794.195V793.862V793.529V793.197V792.865V792.535V792.205V791.876V791.547V791.219V790.892V790.565V790.24V789.915V789.59V789.267V788.944V788.622V788.3V787.979V787.659V787.34V787.021V786.703V786.386V786.07V785.754V785.439V785.124V784.811V784.498V784.185V783.874V783.563V783.253V782.944V782.635V782.327V782.02V781.713V781.407V781.102V780.798V780.494V780.192V779.889V779.588V779.287V778.987V778.688V778.389V778.091V777.794V777.498V777.202V776.907V776.613V776.32V776.027V775.735V775.444V775.153V774.863V774.574V774.286V773.998V773.711V773.425V773.14V772.855V772.571V772.288V772.005V771.723V771.442V771.162V770.883V770.604V770.326V770.048V769.772V769.496V769.221V768.946V768.673V768.4V768.128V767.856V767.586V767.316V767.046V766.778V766.51V766.243V765.977V765.712V765.447V765.183V764.92V764.657V764.396V764.135V763.874V763.615V763.356V763.098V762.841V762.585V762.329V762.074V761.82V761.566V761.314V761.062V760.81V760.56V760.31V760.061V759.813V759.566V759.319V759.073V758.828V758.584V758.34V758.097V757.855V757.614V757.373V757.134V756.895V756.656V756.419V756.182V755.946V755.711V755.477V755.243V755.01V754.778V754.547V754.316V754.086V753.857V753.629V753.401V753.175V752.949V752.723V752.499V752.275V752.052V751.83V751.609V751.388V751.169V750.95V750.731V750.514V750.297V750.081V749.866V749.652V749.438V749.226V749.014V748.803V748.592V748.382V748.174V747.966V747.758V747.552V747.346V747.141V746.937V746.734V746.531V746.329V746.128V745.928V745.729V745.53V745.332V745.135V744.939V744.743V744.549V744.355V744.162V743.969V743.778V743.587V743.397V743.208V743.02V742.832V742.645V742.459V742.274V742.09V741.906V741.724V741.542V741.361V741.18V741.001V740.822V740.644V740.467V740.29V740.115V739.94V739.766V739.593V739.421V739.249V739.079V738.909V738.74V738.571V738.404V738.237V738.071V737.906V737.742V737.579V737.416V737.254V737.093V736.933V736.774V736.615V736.457V736.3V736.144V735.989V735.835V735.681V735.528V735.376V735.225V735.074V734.925V734.776V734.628V734.481V734.335V734.189V734.045V733.901V733.758V733.616V733.474V733.334V733.194V733.055V732.917V732.78V732.644V732.508V732.373V732.239V732.106V731.974V731.843V731.712V731.582V731.453V731.325V731.198V731.072V730.946V730.821V730.697V730.574V730.452V730.331V730.21V730.09V729.971V729.853V729.736V729.62V729.504V729.389V729.275V729.162V729.05V728.939V728.828V728.719V728.61V728.502V728.395V728.288V728.183V728.078V727.975V727.872V727.77V727.668V727.568V727.469V727.37V727.272V727.175V727.079V726.984V726.889V726.796V726.703V726.611V726.52V726.43V726.341V726.252V726.165V726.078V725.992V725.907V725.823V725.74V725.657V725.576V725.495V725.415V725.336V725.258V725.181V725.104V725.078C962.033 725.173 963.54 725.288 965.334 725.413C970.326 725.762 977.545 726.195 986.471 726.533C1004.32 727.21 1029.02 727.508 1056.4 725.994C1111 722.975 1176.95 712.725 1220.39 683.356C1263.8 654.01 1297.89 596.692 1321.04 547.203C1332.65 522.38 1341.58 499.375 1347.61 482.578C1350.59 474.269 1352.87 467.475 1354.4 462.724C1356.08 466.396 1358.37 471.342 1361.22 477.285C1367.66 490.731 1376.95 509.29 1388.32 529.743C1411 570.565 1442.14 619.25 1475.66 649.766C1508.32 679.494 1558.2 705.596 1599.68 724.215C1620.46 733.543 1639.22 741.027 1652.78 746.18C1659.57 748.757 1665.05 750.751 1668.84 752.103C1670.44 752.673 1671.74 753.129 1672.71 753.466V753.467V753.509V753.551V753.594V753.637V753.681V753.725V753.77V753.815V753.86V753.907V753.953V754V754.048V754.096V754.145V754.194V754.244V754.294V754.345V754.396V754.448V754.5V754.553V754.607V754.661V754.715V754.77V754.826V754.882V754.938V754.995V755.053V755.111V755.17V755.229V755.289V755.35V755.411V755.473V755.535V755.597V755.661V755.725V755.789V755.854V755.92V755.986V756.053V756.12V756.188V756.256V756.325V756.395V756.465V756.536V756.608V756.68V756.752V756.826V756.9V756.974V757.049V757.125V757.201V757.278V757.356V757.434V757.513V757.592V757.672V757.753V757.835V757.916V757.999V758.082V758.166V758.251V758.336V758.422V758.508V758.595V758.683V758.772V758.861V758.951V759.041V759.132V759.224V759.316V759.409V759.503V759.598V759.693V759.789V759.885V759.982V760.08V760.179V760.278V760.378V760.478V760.58V760.682V760.785V760.888V760.992V761.097V761.203V761.309V761.416V761.524V761.632V761.741V761.851V761.962V762.073V762.185V762.298V762.411V762.525V762.64V762.756V762.873V762.99V763.108V763.227V763.346V763.466V763.587V763.709V763.831V763.955V764.079V764.203V764.329V764.455V764.582V764.71V764.839V764.968V765.098V765.229V765.361V765.494V765.627V765.761V765.896V766.032V766.168V766.306V766.444V766.583V766.723V766.863V767.004V767.147V767.29V767.433V767.578V767.723V767.87V768.017V768.165V768.314V768.463V768.614V768.765V768.917V769.07V769.224V769.378V769.534V769.69V769.847V770.005V770.164V770.324V770.484V770.646V770.808V770.971V771.136V771.301V771.466V771.633V771.801V771.969V772.138V772.309V772.48V772.652V772.825V772.998V773.173V773.349V773.525V773.702V773.881V774.06V774.24V774.421V774.603V774.786V774.969V775.154V775.34V775.526V775.713V775.902V776.091V776.281V776.472V776.665V776.858V777.051V777.246V777.442V777.639V777.837V778.035V778.235V778.436V778.637V778.84V779.043V779.248V779.453V779.659V779.867V780.075V780.284V780.495V780.706V780.918V781.131V781.345V781.561V781.777V781.994V782.212V782.431V782.651V782.872V783.095V783.318V783.542V783.767V783.993V784.22V784.449V784.678V784.908V785.139V785.372V785.605V785.839V786.075V786.311V786.549V786.787V787.027V787.267V787.509V787.751V787.995V788.24V788.486V788.732V788.98V789.229V789.479V789.73V789.982V790.236V790.49V790.745V791.002V791.259V791.518V791.777V792.038V792.3V792.563V792.827V793.092V793.358V793.625V793.894V794.163V794.434V794.706V794.978V795.252V795.527V795.803V796.081V796.359V796.638V796.919V797.201V797.483V797.767V798.052V798.339V798.626V798.914V799.204V799.495V799.787V800.08V800.374V800.669V800.966V801.263V801.562V801.862V802.163V802.465V802.769V803.074V803.379V803.686V803.994V804.304V804.614V804.926V805.238V805.552V805.868V806.184V806.502V806.82V807.14V807.461V807.784V808.107V808.432V808.758V809.085V809.413V809.743V810.074V810.406V810.739V811.073V811.409V811.746V812.084V812.423V812.764V813.106V813.449V813.793V814.139V814.485V814.833V815.182V815.533V815.885V816.238V816.592V816.947V817.304V817.662V818.021V818.382V818.744V819.107V819.471V819.837V820.204V820.572V820.941V821.312V821.684V822.057V822.432V822.808V823.185V823.563V823.943V824.324V824.706V825.09V825.475V825.861V826.249V826.638V827.028V827.419V827.812V828.206V828.602V828.999V829.397Z" fill="#F47155" stroke="#330043" stroke-width="6"/>
<circle cx="1142.51" cy="789.406" r="11.4251" fill="#330043"/>
<circle cx="1424.33" cy="789.406" r="11.4251" fill="#330043"/>
<circle cx="99.9693" cy="1047.42" r="96.9693" fill="white" stroke="white" stroke-width="6"/>
<circle cx="1069.2" cy="127.705" r="96.9693" fill="white" stroke="white" stroke-width="6"/>
<circle cx="2444.01" cy="868.429" r="96.9693" fill="white" stroke="white" stroke-width="6"/>
<path d="M949.002 909.82C949.002 909.82 964.053 984.282 961.91 1018.43C958.518 1072.48 936.198 1115.07 912.058 1113.56C887.917 1112.04 871.098 1067 874.49 1012.94C875.96 989.522 888.167 951.793 888.167 951.793" stroke="#FFCD34" stroke-width="6" stroke-linecap="round"/>
<path d="M1682.03 909.82C1682.03 909.82 1666.98 984.282 1669.13 1018.43C1672.52 1072.48 1694.84 1115.07 1718.98 1113.56C1743.12 1112.04 1759.94 1067 1756.55 1012.94C1755.08 989.522 1742.87 951.793 1742.87 951.793" stroke="#FFCD34" stroke-width="6" stroke-linecap="round"/>
<path d="M1209.19 946.506C1209.19 946.506 1271.27 991.254 1316.78 991.254C1362.28 991.254 1424.36 946.506 1424.36 946.506" stroke="#330043" stroke-width="6" stroke-linecap="round"/>
<path d="M1304.4 760.847C1304.4 760.847 1300.78 790.69 1293.93 808.451C1287.82 824.289 1272.98 846.535 1272.98 846.535" stroke="#330043" stroke-width="6" stroke-linecap="round"/>
</svg>
